<svg width="256" height="256" viewBox="0 0 256 256" fill="none" xmlns="http://www.w3.org/2000/svg">
<path d="M0 128C0 57.3076 57.3076 0 128 0V0C198.692 0 256 57.3076 256 128V128C256 198.692 198.692 256 128 256V256C57.3076 256 0 198.692 0 128V128Z" fill="#0A0A0A"/>
<mask id="path-2-inside-1_4999_2" fill="white">
<path d="M79.1719 104.563C79.1719 82.9889 96.6608 65.5 118.234 65.5H176.828V65.5C176.828 87.0736 159.339 104.563 137.766 104.563H79.1719V104.563Z"/>
</mask>
<path d="M79.1719 104.563C79.1719 82.9889 96.6608 65.5 118.234 65.5H176.828V65.5C176.828 87.0736 159.339 104.563 137.766 104.563H79.1719V104.563Z" fill="#FAFAFA"/>
<path d="M79.1719 104.563C79.1719 78.5706 100.242 57.5 126.234 57.5H184.828L176.828 65.5C176.828 68.1875 176.551 70.8678 176.001 73.4984L118.234 73.5C96.6608 73.5 79.1719 87.4072 79.1719 104.563ZM176.828 104.563H79.1719H176.828ZM79.1719 104.563V65.5V104.563ZM184.828 57.5C184.828 83.4919 163.758 104.563 137.766 104.563C154.921 104.563 168.828 87.0736 168.828 65.5V73.5L184.828 57.5Z" fill="#E5E5E5" mask="url(#path-2-inside-1_4999_2)"/>
<mask id="path-4-inside-2_4999_2" fill="white">
<path d="M126.047 112.375H165.109V112.375C165.109 133.949 147.62 151.438 126.047 151.438V151.438V112.375Z"/>
</mask>
<path d="M126.047 112.375H165.109V112.375C165.109 133.949 147.62 151.438 126.047 151.438V151.438V112.375Z" fill="#FAFAFA"/>
<path d="M126.047 112.375H165.109H126.047ZM165.109 151.438H126.047H165.109ZM126.047 151.438V112.375V151.438ZM173.109 112.375C173.109 133.949 155.621 151.438 134.047 151.438H126.047C143.202 151.438 157.109 133.949 157.109 112.375H173.109Z" fill="#E5E5E5" mask="url(#path-4-inside-2_4999_2)"/>
<mask id="path-6-inside-3_4999_2" fill="white">
<path d="M79.1719 151.438C79.1719 129.864 96.6608 112.375 118.234 112.375V112.375V190.5V190.5C96.6608 190.5 79.1719 173.011 79.1719 151.438V151.438Z"/>
</mask>
<path d="M79.1719 151.438C79.1719 129.864 96.6608 112.375 118.234 112.375V112.375V190.5V190.5C96.6608 190.5 79.1719 173.011 79.1719 151.438V151.438Z" fill="#E5E5E5"/>
<path d="M79.1719 112.375H118.234H79.1719ZM118.234 190.5H79.1719H118.234ZM110.234 190.5C88.6608 190.5 71.1719 173.011 71.1719 151.438C71.1719 129.864 88.6608 112.375 110.234 112.375H118.234C101.079 112.375 87.1719 129.864 87.1719 151.438C87.1719 173.011 101.079 190.5 118.234 190.5H110.234ZM118.234 112.375V190.5V112.375Z" fill="#FAFAFA" mask="url(#path-6-inside-3_4999_2)"/>
</svg>
