<svg width="126" height="160" viewBox="0 0 126 160" fill="none" xmlns="http://www.w3.org/2000/svg">
<mask id="path-1-inside-1_4973_46" fill="white">
<path d="M0.5 50C0.5 22.3858 22.8858 0 50.5 0H125.5V0C125.5 27.6142 103.114 50 75.5 50H0.5V50Z"/>
</mask>
<path d="M0.5 50C0.5 22.3858 22.8858 0 50.5 0H125.5V0C125.5 27.6142 103.114 50 75.5 50H0.5V50Z" fill="#7C3AED"/>
<path d="M0.5 50C0.5 17.9675 26.4675 -8 58.5 -8H133.5L125.5 0C125.5 2.67922 125.285 5.3541 124.856 7.9988L50.5 8C22.8858 8 0.5 26.804 0.5 50ZM125.5 50H0.5H125.5ZM0.5 50V0V50ZM133.5 -8C133.5 24.0325 107.533 50 75.5 50C98.696 50 117.5 27.6142 117.5 0V8L133.5 -8Z" fill="#A78BFA" mask="url(#path-1-inside-1_4973_46)"/>
<mask id="path-3-inside-2_4973_46" fill="white">
<path d="M60.5 60H110.5V60C110.5 87.6142 88.1142 110 60.5 110V110V60Z"/>
</mask>
<path d="M60.5 60H110.5V60C110.5 87.6142 88.1142 110 60.5 110V110V60Z" fill="#7C3AED"/>
<path d="M60.5 60H110.5H60.5ZM110.5 110H60.5H110.5ZM60.5 110V60V110ZM118.5 60C118.5 87.6142 96.1142 110 68.5 110H60.5C83.696 110 102.5 87.6142 102.5 60H118.5Z" fill="#A78BFA" mask="url(#path-3-inside-2_4973_46)"/>
<mask id="path-5-inside-3_4973_46" fill="white">
<path d="M0.5 110C0.5 82.3858 22.8858 60 50.5 60V60V160V160C22.8858 160 0.5 137.614 0.5 110V110Z"/>
</mask>
<path d="M0.5 110C0.5 82.3858 22.8858 60 50.5 60V60V160V160C22.8858 160 0.5 137.614 0.5 110V110Z" fill="#A78BFA"/>
<path d="M0.5 60H50.5H0.5ZM50.5 160H0.5H50.5ZM42.5 160C14.8858 160 -7.5 137.614 -7.5 110C-7.5 82.3858 14.8858 60 42.5 60H50.5C27.304 60 8.5 82.3858 8.5 110C8.5 137.614 27.304 160 50.5 160H42.5ZM50.5 60V160V60Z" fill="#7C3AED" mask="url(#path-5-inside-3_4973_46)"/>
</svg>
