<svg width="256" height="256" viewBox="0 0 256 256" fill="none" xmlns="http://www.w3.org/2000/svg">
<rect width="256" height="256" rx="48" fill="white"/>
<mask id="path-2-inside-1_4995_2" fill="white">
<path d="M65.5 98C65.5 70.3858 87.8858 48 115.5 48H190.5V48C190.5 75.6142 168.114 98 140.5 98H65.5V98Z"/>
</mask>
<path d="M65.5 98C65.5 70.3858 87.8858 48 115.5 48H190.5V48C190.5 75.6142 168.114 98 140.5 98H65.5V98Z" fill="#7C3AED"/>
<path d="M65.5 98C65.5 65.9675 91.4675 40 123.5 40H198.5L190.5 48C190.5 50.6792 190.285 53.3541 189.856 55.9988L115.5 56C87.8858 56 65.5 74.804 65.5 98ZM190.5 98H65.5H190.5ZM65.5 98V48V98ZM198.5 40C198.5 72.0325 172.533 98 140.5 98C163.696 98 182.5 75.6142 182.5 48V56L198.5 40Z" fill="#A78BFA" mask="url(#path-2-inside-1_4995_2)"/>
<mask id="path-4-inside-2_4995_2" fill="white">
<path d="M125.5 108H175.5V108C175.5 135.614 153.114 158 125.5 158V158V108Z"/>
</mask>
<path d="M125.5 108H175.5V108C175.5 135.614 153.114 158 125.5 158V158V108Z" fill="#7C3AED"/>
<path d="M125.5 108H175.5H125.5ZM175.5 158H125.5H175.5ZM125.5 158V108V158ZM183.5 108C183.5 135.614 161.114 158 133.5 158H125.5C148.696 158 167.5 135.614 167.5 108H183.5Z" fill="#A78BFA" mask="url(#path-4-inside-2_4995_2)"/>
<mask id="path-6-inside-3_4995_2" fill="white">
<path d="M65.5 158C65.5 130.386 87.8858 108 115.5 108V108V208V208C87.8858 208 65.5 185.614 65.5 158V158Z"/>
</mask>
<path d="M65.5 158C65.5 130.386 87.8858 108 115.5 108V108V208V208C87.8858 208 65.5 185.614 65.5 158V158Z" fill="#A78BFA"/>
<path d="M65.5 108H115.5H65.5ZM115.5 208H65.5H115.5ZM107.5 208C79.8858 208 57.5 185.614 57.5 158C57.5 130.386 79.8858 108 107.5 108H115.5C92.304 108 73.5 130.386 73.5 158C73.5 185.614 92.304 208 115.5 208H107.5ZM115.5 108V208V108Z" fill="#7C3AED" mask="url(#path-6-inside-3_4995_2)"/>
</svg>
