<svg width="256" height="256" viewBox="0 0 256 256" fill="none" xmlns="http://www.w3.org/2000/svg">
<g clip-path="url(#clip0_4960_42)">
<mask id="path-1-inside-1_4960_42" fill="white">
<path d="M65.5 98C65.5 70.3858 87.8858 48 115.5 48H190.5V48C190.5 75.6142 168.114 98 140.5 98H65.5V98Z"/>
</mask>
<path d="M65.5 98C65.5 70.3858 87.8858 48 115.5 48H190.5V48C190.5 75.6142 168.114 98 140.5 98H65.5V98Z" fill="#8B5CF6"/>
<path d="M65.5 48H190.5H65.5ZM190.5 48C190.5 80.0325 164.533 106 132.5 106H65.5V98C65.5 95.3208 65.7153 92.6459 66.144 90.0012L115.5 90H140.5C168.114 90 190.5 71.196 190.5 48ZM65.5 98V48V98ZM190.5 48V98V48Z" fill="#7C3AED" mask="url(#path-1-inside-1_4960_42)"/>
<mask id="path-3-inside-2_4960_42" fill="white">
<path d="M125.5 108H150.5C164.307 108 175.5 119.193 175.5 133V133C175.5 146.807 164.307 158 150.5 158V158C136.693 158 125.5 146.807 125.5 133V108Z"/>
</mask>
<path d="M125.5 108H150.5C164.307 108 175.5 119.193 175.5 133V133C175.5 146.807 164.307 158 150.5 158V158C136.693 158 125.5 146.807 125.5 133V108Z" fill="#8B5CF6"/>
<path d="M125.5 108H175.5H125.5ZM175.5 141C175.5 154.807 164.307 166 150.5 166C136.693 166 125.5 154.807 125.5 141V133C125.5 142.389 136.693 150 150.5 150C164.307 150 175.5 142.389 175.5 133V141ZM125.5 158V108V158ZM175.5 108V158V108Z" fill="#7C3AED" mask="url(#path-3-inside-2_4960_42)"/>
<mask id="path-5-inside-3_4960_42" fill="white">
<path d="M65.5 158C65.5 130.386 87.8858 108 115.5 108V108V208V208C87.8858 208 65.5 185.614 65.5 158V158Z"/>
</mask>
<path d="M65.5 158C65.5 130.386 87.8858 108 115.5 108V108V208V208C87.8858 208 65.5 185.614 65.5 158V158Z" fill="#8B5CF6"/>
<path d="M65.5 108H115.5H65.5ZM115.5 216C87.8858 216 65.5 193.614 65.5 166V158C65.5 181.196 87.8858 200 115.5 200V216ZM65.5 208V108V208ZM115.5 108V208V108Z" fill="#7C3AED" mask="url(#path-5-inside-3_4960_42)"/>
</g>
<defs>
<clipPath id="clip0_4960_42">
<rect width="256" height="256" fill="white"/>
</clipPath>
</defs>
</svg>
