<svg width="256" height="256" viewBox="0 0 256 256" fill="none" xmlns="http://www.w3.org/2000/svg">
<g clip-path="url(#clip0_4956_4)">
<path d="M199.111 0.050415H56.889C25.4701 0.050415 0 25.5205 0 56.9394V199.161C0 230.58 25.4701 256.05 56.889 256.05H199.111C230.53 256.05 256 230.58 256 199.161V56.9394C256 25.5205 230.53 0.050415 199.111 0.050415Z" fill="#F8FAFC"/>
<mask id="path-2-inside-1_4956_4" fill="white">
<path d="M65.5 98C65.5 70.3858 87.8858 48 115.5 48H190.5V48C190.5 75.6142 168.114 98 140.5 98H65.5V98Z"/>
</mask>
<path d="M65.5 98C65.5 70.3858 87.8858 48 115.5 48H190.5V48C190.5 75.6142 168.114 98 140.5 98H65.5V98Z" fill="#8B5CF6"/>
<path d="M65.5 48H190.5H65.5ZM190.5 48C190.5 80.0325 164.533 106 132.5 106H65.5V98C65.5 95.3208 65.7153 92.6459 66.144 90.0012L115.5 90H140.5C168.114 90 190.5 71.196 190.5 48ZM65.5 98V48V98ZM190.5 48V98V48Z" fill="#7C3AED" mask="url(#path-2-inside-1_4956_4)"/>
<mask id="path-4-inside-2_4956_4" fill="white">
<path d="M128 108H153C166.807 108 178 119.193 178 133V133C178 146.807 166.807 158 153 158V158C139.193 158 128 146.807 128 133V108Z"/>
</mask>
<path d="M128 108H153C166.807 108 178 119.193 178 133V133C178 146.807 166.807 158 153 158V158C139.193 158 128 146.807 128 133V108Z" fill="#8B5CF6"/>
<path d="M128 108H178H128ZM178 141C178 154.807 166.807 166 153 166C139.193 166 128 154.807 128 141V133C128 142.389 139.193 150 153 150C166.807 150 178 142.389 178 133V141ZM128 158V108V158ZM178 108V158V108Z" fill="#7C3AED" mask="url(#path-4-inside-2_4956_4)"/>
<mask id="path-6-inside-3_4956_4" fill="white">
<path d="M65.5 158C65.5 130.386 87.8858 108 115.5 108V108V208V208C87.8858 208 65.5 185.614 65.5 158V158Z"/>
</mask>
<path d="M65.5 158C65.5 130.386 87.8858 108 115.5 108V108V208V208C87.8858 208 65.5 185.614 65.5 158V158Z" fill="#8B5CF6"/>
<path d="M65.5 108H115.5H65.5ZM115.5 216C87.8858 216 65.5 193.614 65.5 166V158C65.5 181.196 87.8858 200 115.5 200V216ZM65.5 208V108V208ZM115.5 108V208V108Z" fill="#7C3AED" mask="url(#path-6-inside-3_4956_4)"/>
</g>
<defs>
<clipPath id="clip0_4956_4">
<rect width="256" height="256" fill="white"/>
</clipPath>
</defs>
</svg>
